<svg xmlns="http://www.w3.org/2000/svg" version="1.1" xmlns:xlink="http://www.w3.org/1999/xlink" xmlns:svgjs="http://svgjs.dev/svgjs" width="1000" height="1000" viewBox="0 0 1000 1000"><rect width="1000" height="1000" fill="#ffffff"></rect><g transform="matrix(0.7,0,0,0.7,149.80643977264543,260.0944129554656)"><svg viewBox="0 0 360 247" data-background-color="#051726" preserveAspectRatio="xMidYMid meet" height="686" width="1000" xmlns="http://www.w3.org/2000/svg" xmlns:xlink="http://www.w3.org/1999/xlink"><defs></defs><g id="tight-bounds" transform="matrix(1,0,0,1,0.09954525978233164,-0.09999999999999432)"><svg viewBox="0 0 359.80088396197056 247.2" height="247.2" width="359.80088396197056"><g><svg viewBox="0 0 395.52 271.7406998097707" height="247.2" width="359.80088396197056"><g transform="matrix(1,0,0,1,0,198.19196605260257)"><svg viewBox="0 0 395.52 73.54873375716812" height="73.54873375716812" width="395.52"><g><svg viewBox="0 0 395.52 73.54873375716812" height="73.54873375716812" width="395.52"><g><rect width="77.57768992392488" height="3.5773618301054864" y="59.50243301910653" fill="#ffffff" data-fill-palette-color="tertiary"></rect><rect width="77.57768992392488" height="3.5773618301054864" y="59.50243301910653" x="317.9423100760751" fill="#ffffff" data-fill-palette-color="tertiary"></rect></g><g><svg viewBox="0 0 395.52 39.668672566371676" height="39.668672566371676" width="395.52"><g transform="matrix(1,0,0,1,0,0)"><svg width="395.52" viewBox="4.199999809265137 -36.040000915527344 364.1299743652344 36.53000259399414" height="39.668672566371676" data-palette-color="#ffffff"><path d="M14.23 0L4.2 0 4.2-35.55 13.21-35.55Q18.02-35.55 20.5-33.19 22.97-30.83 22.97-26.25L22.97-26.25Q22.97-23.51 21.7-21.48 20.43-19.46 18.19-18.55L18.19-18.55Q20.78-17.9 22.38-15.54 23.97-13.18 23.97-10.01L23.97-10.01Q23.97-5.37 21.44-2.69 18.9 0 14.23 0L14.23 0ZM14.77-17.07L6.98-17.07 6.98-2.59 14.36-2.59Q17.53-2.59 19.36-4.54 21.19-6.49 21.19-9.96L21.19-9.96Q21.19-13.18 19.49-15.09 17.8-16.99 14.77-17.07L14.77-17.07ZM6.98-32.91L6.98-19.63 13.45-19.63Q16.63-19.63 18.38-21.31 20.14-23 20.14-26.32L20.14-26.32Q20.14-29.71 18.42-31.31 16.7-32.91 13.21-32.91L13.21-32.91 6.98-32.91ZM48.83-35.55L51.63-35.55 51.63-10.33Q51.61-5.18 48.86-2.34 46.12 0.49 41.06 0.49L41.06 0.49Q35.94 0.49 33.21-2.31 30.49-5.1 30.49-10.42L30.49-10.42 30.49-35.55 33.27-35.55 33.27-10.52Q33.27-2.1 41.06-2.1L41.06-2.1Q48.73-2.1 48.83-10.28L48.83-10.28 48.83-35.55ZM67.52 0L59.49 0 59.49-35.55 67.87-35.55Q73.65-35.55 77.02-31.85 80.39-28.15 80.49-21.66L80.49-21.66 80.49-14.21Q80.49-7.52 77.08-3.76 73.68 0 67.52 0L67.52 0ZM67.79-32.91L62.28-32.91 62.28-2.59 67.67-2.59Q72.43-2.59 75.04-5.53 77.66-8.47 77.73-13.94L77.73-13.94 77.73-21.39Q77.73-26.86 75.18-29.88 72.63-32.91 67.79-32.91L67.79-32.91ZM109.64-16.92L109.64-4.13Q107.85-1.83 105.14-0.67 102.43 0.49 99.21 0.49L99.21 0.49Q93.74 0.49 90.62-3.17 87.49-6.84 87.37-13.33L87.37-13.33 87.37-21.97Q87.37-28.78 90.34-32.41 93.3-36.04 98.8-36.04L98.8-36.04Q103.7-36.04 106.49-33.33 109.27-30.62 109.61-25.51L109.61-25.51 106.83-25.51Q106.39-29.61 104.42-31.51 102.46-33.4 98.82-33.4L98.82-33.4Q94.47-33.4 92.31-30.51 90.15-27.61 90.15-22.02L90.15-22.02 90.15-13.82Q90.15-8.25 92.53-5.18 94.91-2.1 99.21-2.1L99.21-2.1Q103.87-2.1 106.83-5.05L106.83-5.05 106.83-14.31 99.04-14.31 99.04-16.92 109.64-16.92ZM134.22-19.6L134.22-17.02 120.42-17.02 120.42-2.59 136.29-2.59 136.29 0 117.64 0 117.64-35.55 136.17-35.55 136.17-32.91 120.42-32.91 120.42-19.6 134.22-19.6ZM163.32-35.55L163.32-32.91 153.21-32.91 153.21 0 150.4 0 150.4-32.91 140.32-32.91 140.32-35.55 163.32-35.55ZM169.03-35.55L172.71-35.55 183.48-4.27 194.3-35.55 197.98-35.55 197.98 0 195.2 0 195.2-15.41 195.44-30.91 184.56 0 182.41 0 171.57-30.76 171.81-15.5 171.81 0 169.03 0 169.03-35.55ZM226.08 0L223-9.94 209.67-9.94 206.65 0 203.74 0 215.07-35.55 217.66-35.55 228.99 0 226.08 0ZM216.34-31.62L210.48-12.55 222.2-12.55 216.34-31.62ZM256.62-35.55L256.62 0 253.84 0 237.06-30.27 237.06 0 234.26 0 234.26-35.55 237.06-35.55 253.86-5.22 253.86-35.55 256.62-35.55ZM284.74 0L281.67-9.94 268.34-9.94 265.31 0 262.4 0 273.73-35.55 276.32-35.55 287.65 0 284.74 0ZM275-31.62L269.14-12.55 280.86-12.55 275-31.62ZM314.31-16.92L314.31-4.13Q312.52-1.83 309.81-0.67 307.1 0.49 303.88 0.49L303.88 0.49Q298.41 0.49 295.29-3.17 292.16-6.84 292.04-13.33L292.04-13.33 292.04-21.97Q292.04-28.78 295.01-32.41 297.97-36.04 303.47-36.04L303.47-36.04Q308.37-36.04 311.16-33.33 313.94-30.62 314.28-25.51L314.28-25.51 311.5-25.51Q311.06-29.61 309.09-31.51 307.13-33.4 303.49-33.4L303.49-33.4Q299.14-33.4 296.98-30.51 294.82-27.61 294.82-22.02L294.82-22.02 294.82-13.82Q294.82-8.25 297.2-5.18 299.58-2.1 303.88-2.1L303.88-2.1Q308.54-2.1 311.5-5.05L311.5-5.05 311.5-14.31 303.71-14.31 303.71-16.92 314.31-16.92ZM338.89-19.6L338.89-17.02 325.09-17.02 325.09-2.59 340.96-2.59 340.96 0 322.31 0 322.31-35.55 340.84-35.55 340.84-32.91 325.09-32.91 325.09-19.6 338.89-19.6ZM365.35 0L358.22-14.79 349.92-14.79 349.92 0 347.11 0 347.11-35.55 356.85-35.55Q361.71-35.55 364.39-32.78 367.06-30 367.06-25.07L367.06-25.07Q367.06-21.63 365.4-19.03 363.74-16.43 360.93-15.43L360.93-15.43 368.33-0.32 368.33 0 365.35 0ZM349.92-32.91L349.92-17.38 357.34-17.38Q360.49-17.38 362.37-19.54 364.25-21.7 364.25-25.07L364.25-25.07Q364.25-28.81 362.3-30.86 360.35-32.91 356.83-32.91L356.83-32.91 349.92-32.91Z" opacity="1" transform="matrix(1,0,0,1,0,0)" fill="#000000" class="undefined-text-0" data-fill-palette-color="primary" id="text-0"></path></svg></g></svg></g><g transform="matrix(1,0,0,1,77.57768992392488,49.03349411115043)"><svg viewBox="0 0 240.36462015215022 24.515239646017694" height="24.515239646017694" width="240.36462015215022"><g transform="matrix(1,0,0,1,8,0)"><svg width="224.36462015215022" viewBox="2.549999952316284 -38.29999923706055 469.45001220703125 51.29999923706055" height="24.515239646017694" data-palette-color="#81ffd9"><path d="M21.8-33.75L21.8-33.75Q21.8-33.75 32.1-33.3L32.1-33.3 32.4-24.2 30.8-24.2 29.1-30.75Q26.4-31.9 22.7-31.9L22.7-31.9Q16.65-31.9 12.68-27.93 8.7-23.95 8.7-16.35 8.7-8.75 12.58-5.13 16.45-1.5 22.5-1.5L22.5-1.5Q26.55-1.5 29.75-2.7L29.75-2.7 31.6-8.45 33-8.4 32.7-0.9Q26.95 0.3 22.83 0.3 18.7 0.3 16.03-0.15 13.35-0.6 10.8-1.75 8.25-2.9 6.48-4.7 4.7-6.5 3.63-9.38 2.55-12.25 2.55-16.4 2.55-20.55 4.17-24.08 5.8-27.6 8.6-29.65L8.6-29.65Q14.15-33.75 21.8-33.75ZM62.6-12.2Q62.6-6.65 59.25-3.05 55.9 0.55 50.12 0.55 44.35 0.55 41-3.05 37.65-6.65 37.65-12.2 37.65-17.75 41-21.35 44.35-24.95 50.12-24.95 55.9-24.95 59.25-21.35 62.6-17.75 62.6-12.2ZM43.1-12.2L43.1-12.2Q43.1-0.65 50.12-0.65 57.15-0.65 57.15-12.2L57.15-12.2Q57.15-17.8 55.55-20.75 53.95-23.7 50.15-23.7 46.35-23.7 44.72-20.75 43.1-17.8 43.1-12.2ZM74.59-19.15L75.05-19.1Q77.3-24.9 84.09-24.9L84.09-24.9Q87.5-24.9 89.59-22.88 91.69-20.85 91.69-17.1L91.69-17.1Q91.69-10.65 91.3-1.45L91.3-1.45 94.75-1.2 94.75 0 83.69 0 83.69-1.2 86.39-1.4Q86.8-12.7 86.8-14.35 86.8-16 86.75-16.88 86.69-17.75 86.47-19.03 86.25-20.3 85.8-21.05L85.8-21.05Q84.69-22.9 82.34-22.9L82.34-22.9Q79.14-22.9 77.09-20.25 75.05-17.6 75.05-14.5L75.05-14.5 75.05-1.45 78.8-1.2 78.8 0 66.84 0 66.84-1.2 70.14-1.45 70.14-22.6 65.89-22.8 65.89-23.95 74.84-24.55 74.59-19.15ZM113.24-5.2L113.24-5.2Q113.24-5.05 113.19-4.85L113.19-4.85Q112.39-2.4 110.52-0.93 108.64 0.55 106.14 0.55 103.64 0.55 101.97-0.88 100.29-2.3 100.29-6.45L100.29-6.45Q100.29-7.6 100.54-23.1L100.54-23.1 97.09-23.1 97.09-24.4 100.59-24.4 100.64-31.75 105.54-31.75 105.39-24.4 112.54-24.4 112.54-23.1 105.39-23.1Q105.14-6.95 105.14-4.2L105.14-4.2Q105.14-0.85 107.34-0.85L107.34-0.85Q108.69-0.85 110.17-2.4 111.64-3.95 112.24-5.9L112.24-5.9Q113.24-5.9 113.24-5.2ZM131.54-25L131.54-25Q132.84-25 133.59-24.38 134.34-23.75 134.34-22.65L134.34-22.65Q134.34-20.75 132.89-20.15L132.89-20.15Q132.09-20.8 129.99-20.8 127.89-20.8 125.97-19.43 124.04-18.05 124.04-16.3L124.04-16.3 124.04-1.45 128.54-1.2 128.54 0 115.84 0 115.84-1.2 119.14-1.4 119.14-22.75 115.19-22.95 115.19-24.1 124.04-24.65 123.74-18.5 123.94-18.5Q124.79-21.2 127.07-23.1 129.34-25 131.54-25ZM161.69-12.2Q161.69-6.65 158.34-3.05 154.99 0.55 149.21 0.55 143.44 0.55 140.09-3.05 136.74-6.65 136.74-12.2 136.74-17.75 140.09-21.35 143.44-24.95 149.21-24.95 154.99-24.95 158.34-21.35 161.69-17.75 161.69-12.2ZM142.19-12.2L142.19-12.2Q142.19-0.65 149.21-0.65 156.24-0.65 156.24-12.2L156.24-12.2Q156.24-17.8 154.64-20.75 153.04-23.7 149.24-23.7 145.44-23.7 143.81-20.75 142.19-17.8 142.19-12.2ZM176.78-1.2L176.78 0 165.28 0 165.28-1.2 168.59-1.45 168.59-35.9 164.13-36.1 164.13-37.25 173.49-38.3 173.49-1.45 176.78-1.2ZM212.48-1.2L212.48 0 198.63 0 198.63-1.2 202.98-1.65 202.98-14.35 191.18-31.75 187.38-32.3 187.38-33.4 200.88-33.4 200.88-32.35 197.03-31.8 206.93-16.95 215.48-31.05 211.73-32.2 211.73-33.4 221.88-33.4 221.88-32.2 218.08-31 208.13-14.75 208.13-1.65 212.48-1.2ZM244.68-12.2Q244.68-6.65 241.33-3.05 237.98 0.55 232.2 0.55 226.43 0.55 223.08-3.05 219.73-6.65 219.73-12.2 219.73-17.75 223.08-21.35 226.43-24.95 232.2-24.95 237.98-24.95 241.33-21.35 244.68-17.75 244.68-12.2ZM225.18-12.2L225.18-12.2Q225.18-0.65 232.2-0.65 239.23-0.65 239.23-12.2L239.23-12.2Q239.23-17.8 237.63-20.75 236.03-23.7 232.23-23.7 228.43-23.7 226.8-20.75 225.18-17.8 225.18-12.2ZM259.23 0.6L259.23 0.6Q251.23 0.6 251.23-7.1L251.23-7.1Q251.23-12.75 251.58-22.8L251.58-22.8 247.58-23 247.58-24.15 256.48-24.7Q256.13-11.5 256.13-6.75L256.13-6.75Q256.13-3.9 257.18-2.5 258.23-1.1 260.7-1.1 263.18-1.1 265.38-3.88 267.57-6.65 267.57-8.75L267.57-8.75 267.57-22.8 263.43-23 263.43-24.15 272.48-24.7 272.48-1.55 276.73-1.35 276.78-0.2 267.78 0.4 268.13-5 267.53-5Q264.93 0.6 259.23 0.6ZM294.87-25L294.87-25Q296.17-25 296.92-24.38 297.67-23.75 297.67-22.65L297.67-22.65Q297.67-20.75 296.22-20.15L296.22-20.15Q295.42-20.8 293.32-20.8 291.22-20.8 289.3-19.43 287.37-18.05 287.37-16.3L287.37-16.3 287.37-1.45 291.87-1.2 291.87 0 279.17 0 279.17-1.2 282.47-1.4 282.47-22.75 278.52-22.95 278.52-24.1 287.37-24.65 287.07-18.5 287.27-18.5Q288.12-21.2 290.4-23.1 292.67-25 294.87-25ZM311.62-33.4L325.77-33.4Q331.82-33.4 334.54-31.45 337.27-29.5 337.27-25.9 337.27-22.3 335.34-20.18 333.42-18.05 329.72-17.65L329.72-17.65Q334.57-16.8 336.77-14.78 338.97-12.75 338.97-9.05L338.97-9.05Q338.97-4.45 335.17-2.23 331.37 0 325.32 0L325.32 0 312.22 0 312.22-1.2 315.97-1.65 315.97-31.75 311.62-32.2 311.62-33.4ZM327.87-16.2L327.87-16.2Q325.97-16.6 324.17-16.6 322.37-16.6 321.22-16.55L321.22-16.55 321.22-1.4Q322.47-1.05 323.49-1.05 324.52-1.05 325.94-1.2 327.37-1.35 329.24-2.02 331.12-2.7 332.37-4.65 333.62-6.6 333.62-9.45L333.62-9.45Q333.62-15 327.87-16.2ZM324.47-32.05L321.22-32.05 321.22-18.05 323.32-18.05Q331.77-18.05 331.77-25.75L331.77-25.75Q331.77-29.1 330.04-30.58 328.32-32.05 324.47-32.05L324.47-32.05ZM353.67 0.6L353.67 0.6Q345.67 0.6 345.67-7.1L345.67-7.1Q345.67-12.75 346.01-22.8L346.01-22.8 342.01-23 342.01-24.15 350.92-24.7Q350.56-11.5 350.56-6.75L350.56-6.75Q350.56-3.9 351.62-2.5 352.67-1.1 355.14-1.1 357.62-1.1 359.81-3.88 362.01-6.65 362.01-8.75L362.01-8.75 362.01-22.8 357.87-23 357.87-24.15 366.92-24.7 366.92-1.55 371.17-1.35 371.22-0.2 362.22 0.4 362.56-5 361.97-5Q359.37 0.6 353.67 0.6ZM393.01-7.65L393.01-7.65 393.01-21.4Q390.61-23.25 387.06-23.25L387.06-23.25Q382.61-23.25 380.96-19.6L380.96-19.6Q379.61-16.5 379.61-11.15L379.61-11.15Q379.61-0.8 385.21-0.8L385.21-0.8Q388.36-0.8 390.69-3.2 393.01-5.6 393.01-7.65ZM384.26 0.75L384.26 0.75Q379.96 0.75 377.01-2.33 374.06-5.4 374.06-11.53 374.06-17.65 377.64-21.2 381.21-24.75 387.16-24.75L387.16-24.75Q390.26-24.75 393.01-23.3L393.01-23.3 393.01-35.9 388.61-36.1 388.56-37.25 397.81-38.3 397.81-1.15 402.06-0.95 402.11 0.2 393.26 0.8 393.36-4 393.06-4Q391.86-1.75 389.41-0.5 386.96 0.75 384.26 0.75ZM410.71-5L410.71-5Q410.71-3.85 412.33-3.48 413.96-3.1 419.11-2.65 424.26-2.2 426.51-0.83 428.76 0.55 428.76 3.6L428.76 3.6Q428.76 7.5 425.08 10.25 421.41 13 415.56 13 409.71 13 406.96 11.13 404.21 9.25 404.21 6.15L404.21 6.15Q404.21 4.1 405.56 2.27 406.91 0.45 409.51-0.3L409.51-0.3Q406.46-1.4 406.46-3.95L406.46-3.95Q406.46-5.45 408.01-6.48 409.56-7.5 411.51-7.75L411.51-7.75Q408.36-8.65 406.66-10.88 404.96-13.1 404.96-16.1L404.96-16.1Q404.96-19.95 407.83-22.45 410.71-24.95 415.61-24.95L415.61-24.95Q417.01-24.95 418.66-24.6L418.66-24.6Q420.11-24.95 420.96-26.1L420.96-26.1Q421.86-27.35 421.86-28.75 421.86-30.15 421.71-31.15L421.71-31.15Q422.41-31.45 423.11-31.45 423.81-31.45 424.51-31.1L424.51-31.1Q425.86-30.4 425.86-28.68 425.86-26.95 424.21-25.65 422.56-24.35 420.26-24.15L420.26-24.15Q422.96-23.15 424.41-21.03 425.86-18.9 425.86-16.1L425.86-16.1Q425.86-11.9 422.63-9.6 419.41-7.3 414.71-7.3L414.71-7.3Q412.96-7.25 411.83-6.53 410.71-5.8 410.71-5ZM408.06 5.6L408.06 5.6Q408.06 8.25 410.23 9.83 412.41 11.4 415.88 11.4 419.36 11.4 422.11 9.65 424.86 7.9 424.91 5.25L424.91 5.25Q424.91 3.55 423.81 2.7L423.81 2.7Q422.86 1.95 421.16 1.7 419.46 1.45 416.43 1.13 413.41 0.8 411.26 0.35L411.26 0.35Q409.91 1.05 408.98 2.53 408.06 4 408.06 5.6ZM415.26-8.35L415.26-8.35Q418.06-8.35 419.41-10.5 420.76-12.65 420.76-16.1L420.76-16.1Q420.76-23.85 415.61-23.85L415.61-23.85Q412.81-23.85 411.43-21.78 410.06-19.7 410.06-16.1L410.06-16.1Q410.06-8.35 415.26-8.35ZM442.11 0.55Q436.96 0.55 433.81-2.95 430.66-6.45 430.66-12.2 430.66-17.95 433.98-21.45 437.31-24.95 442.36-24.95 447.41-24.95 449.91-22.68 452.41-20.4 452.41-16.35L452.41-16.35Q452.41-15.15 452.21-13.95L452.21-13.95 436.06-13.95 436.06-12.2Q436.06-6.6 437.66-3.73 439.26-0.85 442.91-0.85L442.91-0.85Q448.06-0.85 450.86-5.35L450.86-5.35Q451.96-5 451.96-4.3L451.96-4.3Q451.96-3.05 449.66-1.4L449.66-1.4Q448.56-0.6 446.56-0.03 444.56 0.55 442.11 0.55L442.11 0.55ZM447.66-17.4L447.66-17.4Q447.66-19.7 446.71-21.35L446.71-21.35Q445.41-23.55 442.51-23.55L442.51-23.55Q437.11-23.55 436.21-15.75L436.21-15.75 447.56-15.75Q447.66-16.6 447.66-17.4ZM472-5.2L472-5.2Q472-5.05 471.95-4.85L471.95-4.85Q471.15-2.4 469.28-0.93 467.4 0.55 464.9 0.55 462.4 0.55 460.73-0.88 459.05-2.3 459.05-6.45L459.05-6.45Q459.05-7.6 459.3-23.1L459.3-23.1 455.85-23.1 455.85-24.4 459.35-24.4 459.4-31.75 464.3-31.75 464.15-24.4 471.3-24.4 471.3-23.1 464.15-23.1Q463.9-6.95 463.9-4.2L463.9-4.2Q463.9-0.85 466.1-0.85L466.1-0.85Q467.45-0.85 468.93-2.4 470.4-3.95 471-5.9L471-5.9Q472-5.9 472-5.2Z" opacity="1" transform="matrix(1,0,0,1,0,0)" fill="#000000" class="undefined-text-1" data-fill-palette-color="secondary" id="text-1"></path></svg></g></svg></g></svg></g></svg></g><g transform="matrix(1,0,0,1,108.02883851847747,0)"><svg viewBox="0 0 179.46232296304504 179.46232296304504" height="179.46232296304504" width="179.46232296304504"><g><svg></svg></g><g id="icon-0"><svg viewBox="0 0 179.46232296304504 179.46232296304504" height="179.46232296304504" width="179.46232296304504"><g><path d="M0 89.731c0-49.557 40.174-89.731 89.731-89.731 49.557 0 89.731 40.174 89.731 89.731 0 49.557-40.174 89.731-89.731 89.731-49.557 0-89.731-40.174-89.731-89.731zM89.731 175.885c47.581 0 86.154-38.572 86.154-86.154 0-47.581-38.572-86.154-86.154-86.154-47.581 0-86.154 38.572-86.154 86.154 0 47.581 38.572 86.154 86.154 86.154z" data-fill-palette-color="tertiary" fill="#ffffff" stroke="transparent"></path></g><g transform="matrix(1,0,0,1,37.453179132550844,37.453179132550844)"><svg viewBox="0 0 104.55596469794335 104.55596469794335" height="104.55596469794335" width="104.55596469794335"><g><svg xmlns="http://www.w3.org/2000/svg" xmlns:xlink="http://www.w3.org/1999/xlink" version="1.0" x="0" y="0" viewBox="3 3 94 94" enable-background="new 0 0 100 100" xml:space="preserve" height="104.55596469794335" width="104.55596469794335" class="icon-x-0" data-fill-palette-color="accent" id="x-0"><path d="M47.999 71.895c0 1.104 0.896 2 2 2s2-0.896 2-2v-4.809h3.203c5.264 0 9.546-4.281 9.546-9.543 0-5.263-4.282-9.545-9.546-9.545h-3.203V36.914h9.472c1.104 0 2-0.896 2-2s-0.896-2-2-2h-9.472v-4.812c0-1.104-0.896-2-2-2s-2 0.896-2 2v4.812h-3.196c-5.265 0-9.547 4.281-9.547 9.543 0 5.261 4.282 9.541 9.547 9.541h3.196v11.088H37.256c-1.104 0-2 0.896-2 2s0.896 2 2 2h10.743V71.895zM44.803 36.914h3.196v11.084h-3.196c-3.059 0-5.547-2.486-5.547-5.541C39.256 39.4 41.744 36.914 44.803 36.914zM55.202 63.086h-3.203V51.998h3.203c3.058 0 5.546 2.487 5.546 5.545C60.748 60.6 58.26 63.086 55.202 63.086z" fill="#000000" data-fill-palette-color="accent"></path><path d="M10.238 25.66c0 0.018 0.004 0.034 0.006 0.051 0.009 0.106 0.024 0.211 0.051 0.315 0.008 0.034 0.021 0.066 0.031 0.1 0.026 0.084 0.054 0.167 0.091 0.248 0.023 0.051 0.052 0.098 0.079 0.146 0.034 0.059 0.066 0.118 0.105 0.174 0.046 0.065 0.1 0.124 0.152 0.183 0.031 0.035 0.06 0.07 0.094 0.103 0.074 0.072 0.158 0.135 0.244 0.196 0.018 0.011 0.03 0.026 0.047 0.037 0.004 0.002 0.009 0.003 0.013 0.006 0.025 0.016 0.046 0.037 0.072 0.053l16.018 9.369c0.317 0.186 0.665 0.274 1.008 0.274 0.688 0 1.356-0.354 1.729-0.991 0.558-0.954 0.236-2.178-0.717-2.736l-14.162-8.284C23.183 13.661 36.07 7 49.999 7c1.104 0 2-0.896 2-2s-0.896-2-2-2C34.01 3 19.263 11.018 10.55 24.447c-0.17 0.262-0.264 0.548-0.3 0.839 0 0.001 0 0.003 0 0.004C10.234 25.414 10.229 25.537 10.238 25.66z" fill="#000000" data-fill-palette-color="accent"></path><path d="M35.031 90.322C18.265 84.098 7 67.893 7 49.998c0-3.238 0.363-6.468 1.079-9.599 0.246-1.077-0.428-2.149-1.505-2.396-1.073-0.246-2.149 0.427-2.396 1.504C3.396 42.931 3 46.461 3 49.998c0 19.559 12.312 37.271 30.639 44.074 0.229 0.085 0.465 0.125 0.696 0.125 0.812 0 1.576-0.499 1.875-1.305C36.595 91.858 36.066 90.707 35.031 90.322z" fill="#000000" data-fill-palette-color="accent"></path><path d="M68.494 6.785c-0.009-0.004-0.016-0.01-0.024-0.014-0.011-0.005-0.022-0.007-0.034-0.012-0.048-0.021-0.095-0.043-0.143-0.063-1.02-0.432-2.191 0.045-2.621 1.062-0.087 0.205-0.127 0.415-0.144 0.625l-6.802 14.814c-0.461 1.004-0.021 2.191 0.982 2.652 0.271 0.125 0.555 0.183 0.834 0.183 0.757 0 1.481-0.433 1.818-1.166l6.258-13.629C83.496 18.381 93 33.373 93 49.998 93 73.039 74.785 91.9 51.999 92.949V81.436c0-1.104-0.896-2-2-2s-2 0.896-2 2V95c0 1.104 0.896 2 2 2C75.915 97 97 75.915 97 49.998 97 31.143 85.816 14.207 68.494 6.785z" fill="#000000" data-fill-palette-color="accent"></path></svg></g></svg></g></svg></g></svg></g><g></g></svg></g></svg><rect width="359.80088396197056" height="247.2" fill="none" stroke="none" visibility="hidden"></rect></g></svg></g></svg>